<mxfile host="app.diagrams.net" modified="2024-11-29T16:46:00.460Z" agent="Mozilla/5.0 (Macintosh; Intel Mac OS X 10_15_7) AppleWebKit/537.36 (KHTML, like Gecko) Chrome/131.0.0.0 Safari/537.36" etag="Aw42KNmmsTML-4Mqm26g" version="24.5.5" type="github">
  <diagram name="Page-1" id="t7AT3rjV4gGcQWDzSp1c">
    <mxGraphModel dx="2074" dy="1059" grid="1" gridSize="10" guides="1" tooltips="1" connect="1" arrows="1" fold="1" page="1" pageScale="1" pageWidth="827" pageHeight="1169" math="0" shadow="0">
      <root>
        <mxCell id="0" />
        <mxCell id="1" parent="0" />
        <mxCell id="pvlXGJcnth1C-8e9TDN_-1" value="{\rtf1\ansi\ansicpg1252\cocoartf2820&#xa;\cocoatextscaling0\cocoaplatform0{\fonttbl\f0\fswiss\fcharset0 Helvetica;}&#xa;{\colortbl;\red255\green255\blue255;}&#xa;{\*\expandedcolortbl;;}&#xa;\paperw11900\paperh16840\margl1440\margr1440\vieww11520\viewh8400\viewkind0&#xa;\pard\tx720\tx1440\tx2160\tx2880\tx3600\tx4320\tx5040\tx5760\tx6480\tx7200\tx7920\tx8640\pardirnatural\partightenfactor0&#xa;&#xa;\f0\fs24 \cf0 \&#xa;\&#xa;  \&#xa;    \&#xa;      \&#xa;        \&#xa;        \&#xa;        \&#xa;          \&#xa;        \&#xa;        \&#xa;          \&#xa;        \&#xa;        \&#xa;          \&#xa;        \&#xa;        \&#xa;          \&#xa;        \&#xa;        \&#xa;          \&#xa;        \&#xa;        \&#xa;          \&#xa;        \&#xa;        \&#xa;          \&#xa;        \&#xa;        \&#xa;          \&#xa;        \&#xa;        \&#xa;          \&#xa;        \&#xa;        \&#xa;          \&#xa;        \&#xa;        \&#xa;          \&#xa;        \&#xa;        \&#xa;          \&#xa;        \&#xa;        \&#xa;          \&#xa;        \&#xa;        \&#xa;          \&#xa;        \&#xa;        \&#xa;          \&#xa;        \&#xa;      \&#xa;    \&#xa;  \&#xa;}" style="text;whiteSpace=wrap;html=1;" vertex="1" parent="1">
          <mxGeometry width="560" height="930" as="geometry" />
        </mxCell>
      </root>
    </mxGraphModel>
  </diagram>
</mxfile>
